<svg xmlns="http://www.w3.org/2000/svg" version="1.1" xmlns:xlink="http://www.w3.org/1999/xlink" xmlns:svgjs="http://svgjs.dev/svgjs" width="1500" height="329" viewBox="0 0 1500 329"><g transform="matrix(1,0,0,1,-0.9090909090909918,-0.5506863192365472)"><svg viewBox="0 0 396 87" data-background-color="#636365" preserveAspectRatio="xMidYMid meet" height="329" width="1500" xmlns="http://www.w3.org/2000/svg" xmlns:xlink="http://www.w3.org/1999/xlink"><g id="tight-bounds" transform="matrix(1,0,0,1,0.2400000000000091,0.1456222181567739)"><svg viewBox="0 0 395.52 86.70875556368644" height="86.70875556368644" width="395.52"><g><svg viewBox="0 0 560.283599823816 122.82942380528308" height="86.70875556368644" width="395.52"><g><rect width="6.817805070067327" height="122.82942380528308" x="140.09813750226348" y="0" fill="#ffffff" opacity="1" stroke-width="0" stroke="transparent" fill-opacity="1" class="rect-qz-0" data-fill-palette-color="primary" rx="1%" id="qz-0" data-palette-color="#ffffff"></rect></g><g transform="matrix(1,0,0,1,164.76359982381595,0.30554583036139604)"><svg viewBox="0 0 395.52 122.21833214456029" height="122.21833214456029" width="395.52"><g id="textblocktransform"><svg viewBox="0 0 395.52 122.21833214456029" height="122.21833214456029" width="395.52" id="textblock"><g><svg viewBox="0 0 395.52 75.6013201320132" height="75.6013201320132" width="395.52"><g transform="matrix(1,0,0,1,0,0)"><svg width="395.52" viewBox="0.85 -34.1 181.78 34.75" height="75.6013201320132" data-palette-color="#ffffff"><path d="M11.55 0L11.55-30.2 0.85-30.2 0.85-34.1 26.45-34.1 26.45-30.2 15.75-30.2 15.75 0 11.55 0ZM27.4 0L27.4-21.1Q27.4-22.25 27.15-24.7L27.15-24.7 30.85-25.2 31.25-21.55 31.3-21.55Q32.2-22.7 33.05-23.55 33.9-24.4 34.82-25.03 35.75-25.65 36.6-25.65L36.6-25.65Q37.75-25.7 39.8-25.4L39.8-25.4 38.9-21.55Q37.25-21.85 36.6-21.8L36.6-21.8Q35.75-21.8 34.8-21 33.85-20.2 33.15-19.3L33.15-19.3Q32.25-18.2 31.4-16.8L31.4-16.8 31.4 0 27.4 0ZM59.55 0.4L59.25-2.75 59.14-2.75Q58.7-2.4 57.84-1.83 57-1.25 55.89-0.7 54.8-0.15 53.47 0.25 52.14 0.65 50.8 0.65L50.8 0.65Q48.95 0.65 47.64 0.18 46.34-0.3 45.55-1.4 44.74-2.5 44.39-4.3 44.05-6.1 44.05-8.8L44.05-8.8 44.05-25.15 48.05-25.15 48.05-9.4Q48.05-7.9 48.09-6.7 48.14-5.5 48.45-4.65 48.74-3.8 49.42-3.33 50.09-2.85 51.34-2.85L51.34-2.85Q52.64-2.85 54.05-3.4 55.45-3.95 56.59-4.65L56.59-4.65Q57.95-5.45 59.25-6.45L59.25-6.45 59.25-25.15 63.25-25.15 63.25-3.25Q63.3-1.45 63.5 0L63.5 0 59.55 0.4ZM84.79-24.6L84.09-21.05Q81.99-21.7 80.37-21.93 78.74-22.15 77.39-22.15L77.39-22.15Q75.64-22.15 74.47-21.3 73.29-20.45 73.29-19.1L73.29-19.1Q73.34-17.9 74.34-17.05 75.34-16.2 76.67-15.53 77.99-14.85 79.62-14.05 81.24-13.25 82.67-12.25 84.09-11.25 84.99-9.85 85.89-8.45 85.94-6.5L85.94-6.5Q85.89-4.4 85.02-3.03 84.14-1.65 82.77-0.83 81.39 0 79.79 0.33 78.19 0.65 76.79 0.65L76.79 0.65Q74.99 0.65 73.07 0.45 71.14 0.25 68.94-0.4L68.94-0.4 69.69-4Q71.94-3.4 73.79-3.13 75.64-2.85 76.84-2.85L76.84-2.85Q77.74-2.85 78.62-3.05 79.49-3.25 80.19-3.63 80.89-4 81.32-4.6 81.74-5.2 81.74-5.95L81.74-5.95Q81.69-7.35 80.79-8.33 79.89-9.3 78.47-10.08 77.04-10.85 75.42-11.63 73.79-12.4 72.37-13.43 70.94-14.45 69.99-15.88 69.04-17.3 69.04-19.4L69.04-19.4Q69.04-20.9 69.82-22.08 70.59-23.25 71.82-24.03 73.04-24.8 74.52-25.23 75.99-25.65 77.39-25.65L77.39-25.65Q78.84-25.65 80.64-25.43 82.44-25.2 84.79-24.6L84.79-24.6ZM93.19-32.15L97.19-32.65 97.19-25.15 104.44-25.15 104.44-21.9 97.19-21.9 97.19-8.55Q97.19-6.9 97.27-5.8 97.34-4.7 97.59-4.05 97.84-3.4 98.29-3.13 98.74-2.85 99.44-2.85L99.44-2.85Q101.34-2.9 103.84-4.25L103.84-4.25 105.04-1.2Q103.39-0.1 101.97 0.28 100.54 0.65 99.14 0.65L99.14 0.65Q95.84 0.65 94.52-1.23 93.19-3.1 93.19-7.45L93.19-7.45 93.19-21.9 88.59-21.9 88.59-25.15 93.19-25.15 93.19-32.15ZM110.34 0L110.34-34.1 114.34-34.1 132.24-7.05 132.34-7.05Q132.24-8.5 132.19-10.15L132.19-10.15Q132.09-11.55 132.06-13.38 132.04-15.2 132.04-17.1L132.04-17.1 132.04-34.1 136.04-34.1 136.04 0 132.04 0 114.14-27.15 114.04-27.15Q114.09-25.65 114.19-24L114.19-24Q114.24-22.55 114.29-20.75 114.34-18.95 114.34-17.05L114.34-17.05 114.34 0 110.34 0ZM161.49-3.95L162.24-0.6Q161.09-0.25 159.86 0 158.63 0.25 157.16 0.45 155.69 0.65 154.09 0.65L154.09 0.65Q151.59 0.65 149.44-0.05 147.28-0.75 145.69-2.3 144.09-3.85 143.16-6.33 142.23-8.8 142.23-12.4L142.23-12.4Q142.23-15.65 143.13-18.13 144.03-20.6 145.61-22.28 147.19-23.95 149.31-24.8 151.44-25.65 153.94-25.65L153.94-25.65Q156.38-25.65 158.19-24.7 159.99-23.75 161.16-22.13 162.34-20.5 162.91-18.32 163.49-16.15 163.49-13.75L163.49-13.75 162.74-11.55 146.59-11.55Q146.59-10 146.98-8.45 147.38-6.9 148.36-5.65 149.34-4.4 150.91-3.63 152.48-2.85 154.84-2.85L154.84-2.85Q156.34-2.85 157.59-3.03 158.84-3.2 159.76-3.43 160.69-3.65 161.49-3.95L161.49-3.95ZM146.73-14.75L159.34-14.75Q159.34-15.1 159.19-16.3 159.03-17.5 158.48-18.8 157.94-20.1 156.78-21.13 155.63-22.15 153.73-22.15L153.73-22.15Q151.63-22.15 150.28-21.28 148.94-20.4 148.13-19.2 147.34-18 147.03-16.75 146.73-15.5 146.73-14.75L146.73-14.75ZM170.78-32.15L174.78-32.65 174.78-25.15 182.03-25.15 182.03-21.9 174.78-21.9 174.78-8.55Q174.78-6.9 174.86-5.8 174.93-4.7 175.18-4.05 175.43-3.4 175.88-3.13 176.33-2.85 177.03-2.85L177.03-2.85Q178.93-2.9 181.43-4.25L181.43-4.25 182.63-1.2Q180.98-0.1 179.56 0.28 178.13 0.65 176.73 0.65L176.73 0.65Q173.43 0.65 172.11-1.23 170.78-3.1 170.78-7.45L170.78-7.45 170.78-21.9 166.18-21.9 166.18-25.15 170.78-25.15 170.78-32.15Z" opacity="1" transform="matrix(1,0,0,1,0,0)" fill="#ffffff" class="wordmark-text-0" data-fill-palette-color="primary" id="text-0"></path></svg></g></svg></g><g transform="matrix(1,0,0,1,0,93.44897738349835)"><svg viewBox="0 0 232.209792 28.769354761061948" height="28.769354761061948" width="232.209792"><g transform="matrix(1,0,0,1,0,0)"><svg width="232.209792" viewBox="4 -38.7 401.1 49.7" height="28.769354761061948" data-palette-color="#ffffff"><path d="M4-33.5L11.1-34.75 10.55-18.45 23.3-34.65 28.4-31.25 16.9-17.9 29.1-3.45 22.7 0.55 10.5-16.7 10.4-13 11 0 4 0 4.6-12.15 4-33.5ZM40.8-5.1L40.8-5.1Q42.25-5.1 43.85-5.85 45.45-6.6 46.35-7.35L46.35-7.35 47.25-8.1 49.55-5.3Q49.05-4.45 48-3.35 46.95-2.25 45.87-1.48 44.8-0.7 43.02-0.08 41.25 0.55 39.35 0.55L39.35 0.55Q35.3 0.55 32.75-2.53 30.2-5.6 30.2-10.45L30.2-10.45Q30.2-16.55 33.75-21.15 37.3-25.75 42.05-25.75L42.05-25.75Q45.7-25.75 47.72-23.7 49.75-21.65 49.75-17.95L49.75-17.95Q49.75-15.75 49-12.95L49-12.95 48-11.9 35.5-10.75Q36.35-5.1 40.8-5.1ZM40.8-20.6L40.8-20.6Q38.6-20.6 37.1-18.82 35.6-17.05 35.35-14.3L35.35-14.3 43.85-15.35Q44-16.5 44-17.25L44-17.25Q44-20.6 40.8-20.6ZM63.1-5.1L63.1-5.1Q64.55-5.1 66.15-5.85 67.75-6.6 68.65-7.35L68.65-7.35 69.55-8.1 71.85-5.3Q71.35-4.45 70.3-3.35 69.25-2.25 68.17-1.48 67.1-0.7 65.32-0.08 63.55 0.55 61.65 0.55L61.65 0.55Q57.6 0.55 55.05-2.53 52.5-5.6 52.5-10.45L52.5-10.45Q52.5-16.55 56.05-21.15 59.6-25.75 64.35-25.75L64.35-25.75Q68-25.75 70.02-23.7 72.05-21.65 72.05-17.95L72.05-17.95Q72.05-15.75 71.3-12.95L71.3-12.95 70.3-11.9 57.8-10.75Q58.65-5.1 63.1-5.1ZM63.1-20.6L63.1-20.6Q60.9-20.6 59.4-18.82 57.9-17.05 57.65-14.3L57.65-14.3 66.15-15.35Q66.3-16.5 66.3-17.25L66.3-17.25Q66.3-20.6 63.1-20.6ZM89.74-25.25L89.74-25.25Q92.94-25.25 95.12-22.45 97.29-19.65 97.29-14.9L97.29-14.9Q97.29-8.25 93.87-4.13 90.44 0 85.34 0L85.34 0Q84.29 0 82.99-0.15L82.99-0.15 83.24 9.4 76.39 10.65 77.04-12.15 77.09-12.15Q76.89-18.85 75.99-24.15L75.99-24.15 82.04-25.45Q82.34-22.8 82.54-20.2L82.54-20.2Q82.64-20.45 83.57-21.58 84.49-22.7 86.29-23.98 88.09-25.25 89.74-25.25ZM87.79-18.75L87.79-18.75Q85.14-18.75 82.64-17.3L82.64-17.3 82.64-13 82.84-5.85Q85.54-5.4 86.94-5.4L86.94-5.4Q91.74-5.4 91.74-12.08 91.74-18.75 87.79-18.75ZM109.14-24.2L115.84-25.45 115.24-13 115.79-1.25 109.09 0 109.69-12.15 109.14-24.2ZM108.79-32.77Q108.79-34.45 110.09-35.77 111.39-37.1 113.09-37.1 114.79-37.1 115.69-36.18 116.59-35.25 116.59-33.4 116.59-31.55 115.31-30.23 114.04-28.9 112.36-28.9 110.69-28.9 109.74-30 108.79-31.1 108.79-32.77ZM134.54-4.9L134.54-4.9Q130.64 0 127.79 0L127.79 0Q124.24 0 121.96-2.9 119.69-5.8 119.69-10.35L119.69-10.35Q119.69-16.6 123.16-20.9 126.64-25.2 131.69-25.2L131.69-25.2 134.49-24.8 134.49-25.75 133.89-37.45 140.74-38.7 140.09-13 140.09-8.6Q140.09-5.6 141.59-1.7L141.59-1.7 136.19 0.55Q134.74-2.45 134.54-4.9ZM125.29-12.95Q125.29-9.75 126.46-7.95 127.64-6.15 129.86-6.15 132.09-6.15 134.49-7.95L134.49-7.95 134.49-18.75Q131.49-19.35 130.04-19.35L130.04-19.35Q127.79-19.35 126.54-17.75 125.29-16.15 125.29-12.95ZM155.43-5.1L155.43-5.1Q156.88-5.1 158.48-5.85 160.08-6.6 160.98-7.35L160.98-7.35 161.88-8.1 164.18-5.3Q163.68-4.45 162.63-3.35 161.58-2.25 160.51-1.48 159.43-0.7 157.66-0.08 155.88 0.55 153.98 0.55L153.98 0.55Q149.93 0.55 147.38-2.53 144.83-5.6 144.83-10.45L144.83-10.45Q144.83-16.55 148.38-21.15 151.93-25.75 156.68-25.75L156.68-25.75Q160.33-25.75 162.36-23.7 164.38-21.65 164.38-17.95L164.38-17.95Q164.38-15.75 163.63-12.95L163.63-12.95 162.63-11.9 150.13-10.75Q150.98-5.1 155.43-5.1ZM155.43-20.6L155.43-20.6Q153.23-20.6 151.73-18.82 150.23-17.05 149.98-14.3L149.98-14.3 158.48-15.35Q158.63-16.5 158.63-17.25L158.63-17.25Q158.63-20.6 155.43-20.6ZM183.23-12.65Q183.23-16.1 182.63-17.25 182.03-18.4 179.83-18.4 177.63-18.4 174.83-16.65L174.83-16.65 174.83-13 175.38-1.25 168.68 0 169.28-12.15Q169.08-18.85 168.18-24.15L168.18-24.15 174.23-25.45Q174.58-22.55 174.73-19.8L174.73-19.8Q175.48-20.8 176.43-21.78 177.38-22.75 179.43-23.98 181.48-25.2 183.76-25.2 186.03-25.2 187.58-23.43 189.13-21.65 189.13-18.6L189.13-18.6 188.83-13 189.38-1 182.63 0.25 183.23-12.65ZM193.93-24.2L196.83-24.2 196.83-29.65 203.58-30.95 202.93-24.2 208.98-24.2 208.43-20.1 202.73-20.1 202.48-9.65Q202.48-7.3 202.93-6.53 203.38-5.75 204.58-5.75 205.78-5.75 207.78-6.3L207.78-6.3 208.08-2.75Q204.78 0 202.28 0 199.78 0 198.18-1.83 196.58-3.65 196.58-6.6L196.58-6.6 196.88-12.2 196.83-20.1 193.38-20.1 193.93-24.2ZM212.63-24.2L219.33-25.45 218.73-13 219.28-1.25 212.58 0 213.18-12.15 212.63-24.2ZM212.28-32.77Q212.28-34.45 213.58-35.77 214.88-37.1 216.58-37.1 218.28-37.1 219.18-36.18 220.08-35.25 220.08-33.4 220.08-31.55 218.8-30.23 217.53-28.9 215.85-28.9 214.18-28.9 213.23-30 212.28-31.1 212.28-32.77ZM223.87-24.2L226.77-24.2 226.77-29.65 233.52-30.95 232.87-24.2 238.92-24.2 238.37-20.1 232.67-20.1 232.42-9.65Q232.42-7.3 232.87-6.53 233.32-5.75 234.52-5.75 235.72-5.75 237.72-6.3L237.72-6.3 238.02-2.75Q234.72 0 232.22 0 229.72 0 228.12-1.83 226.52-3.65 226.52-6.6L226.52-6.6 226.82-12.2 226.77-20.1 223.32-20.1 223.87-24.2ZM249.72 11L243.27 9.65 248.42-1.9 244.72-12 239.67-24.15 246.32-25.4 249.52-14.75 251.17-9.7 251.82-9.7 253.02-13.35 256.62-25.45 262.77-24.7 253.92-1.45 249.72 11ZM288.12-12.65Q288.12-16.1 287.52-17.25 286.92-18.4 284.72-18.4 282.52-18.4 279.72-16.65L279.72-16.65 279.72-13 280.27-1.25 273.52 0 274.12-12.15 273.52-37.45 280.37-38.7 279.72-25.75 279.72-19.9Q280.47-20.9 281.42-21.85 282.37-22.8 284.37-24 286.37-25.2 288.64-25.2 290.92-25.2 292.47-23.43 294.02-21.65 294.02-18.6L294.02-18.6 293.72-13 294.27-1 287.52 0.25 288.12-12.65ZM299.76-24.2L306.46-25.45 305.86-13 306.41-1.25 299.71 0 300.31-12.15 299.76-24.2ZM299.41-32.77Q299.41-34.45 300.71-35.77 302.01-37.1 303.71-37.1 305.41-37.1 306.31-36.18 307.21-35.25 307.21-33.4 307.21-31.55 305.94-30.23 304.66-28.9 302.99-28.9 301.31-28.9 300.36-30 299.41-31.1 299.41-32.77ZM325.16-4.9L325.16-4.9Q321.26 0 318.41 0L318.41 0Q314.86 0 312.59-2.9 310.31-5.8 310.31-10.35L310.31-10.35Q310.31-16.6 313.79-20.9 317.26-25.2 322.31-25.2L322.31-25.2 325.11-24.8 325.11-25.75 324.51-37.45 331.36-38.7 330.71-13 330.71-8.6Q330.71-5.6 332.21-1.7L332.21-1.7 326.81 0.55Q325.36-2.45 325.16-4.9ZM315.91-12.95Q315.91-9.75 317.09-7.95 318.26-6.15 320.49-6.15 322.71-6.15 325.11-7.95L325.11-7.95 325.11-18.75Q322.11-19.35 320.66-19.35L320.66-19.35Q318.41-19.35 317.16-17.75 315.91-16.15 315.91-12.95ZM350.26-4.9L350.26-4.9Q346.36 0 343.51 0L343.51 0Q339.96 0 337.68-2.9 335.41-5.8 335.41-10.35L335.41-10.35Q335.41-16.6 338.88-20.9 342.36-25.2 347.41-25.2L347.41-25.2 350.21-24.8 350.21-25.75 349.61-37.45 356.46-38.7 355.81-13 355.81-8.6Q355.81-5.6 357.31-1.7L357.31-1.7 351.91 0.55Q350.46-2.45 350.26-4.9ZM341.01-12.95Q341.01-9.75 342.18-7.95 343.36-6.15 345.58-6.15 347.81-6.15 350.21-7.95L350.21-7.95 350.21-18.75Q347.21-19.35 345.76-19.35L345.76-19.35Q343.51-19.35 342.26-17.75 341.01-16.15 341.01-12.95ZM371.16-5.1L371.16-5.1Q372.61-5.1 374.21-5.85 375.81-6.6 376.71-7.35L376.71-7.35 377.61-8.1 379.91-5.3Q379.41-4.45 378.36-3.35 377.31-2.25 376.23-1.48 375.16-0.7 373.38-0.08 371.61 0.55 369.71 0.55L369.71 0.55Q365.66 0.55 363.11-2.53 360.56-5.6 360.56-10.45L360.56-10.45Q360.56-16.55 364.11-21.15 367.66-25.75 372.41-25.75L372.41-25.75Q376.06-25.75 378.08-23.7 380.11-21.65 380.11-17.95L380.11-17.95Q380.11-15.75 379.36-12.95L379.36-12.95 378.36-11.9 365.86-10.75Q366.71-5.1 371.16-5.1ZM371.16-20.6L371.16-20.6Q368.96-20.6 367.46-18.82 365.96-17.05 365.71-14.3L365.71-14.3 374.21-15.35Q374.36-16.5 374.36-17.25L374.36-17.25Q374.36-20.6 371.16-20.6ZM398.95-12.65Q398.95-16.1 398.35-17.25 397.75-18.4 395.55-18.4 393.35-18.4 390.55-16.65L390.55-16.65 390.55-13 391.1-1.25 384.4 0 385-12.15Q384.8-18.85 383.9-24.15L383.9-24.15 389.95-25.45Q390.3-22.55 390.45-19.8L390.45-19.8Q391.2-20.8 392.15-21.78 393.1-22.75 395.15-23.98 397.2-25.2 399.48-25.2 401.75-25.2 403.3-23.43 404.85-21.65 404.85-18.6L404.85-18.6 404.55-13 405.1-1 398.35 0.25 398.95-12.65Z" opacity="1" transform="matrix(1,0,0,1,0,0)" fill="#ffffff" class="slogan-text-1" data-fill-palette-color="secondary" id="text-1"></path></svg></g></svg></g></svg></g></svg></g><g transform="matrix(1,0,0,1,0,0.30554583036138894)"><svg viewBox="0 0 122.25048025077832 122.2183321445603" height="122.2183321445603" width="122.25048025077832"><g><svg xmlns="http://www.w3.org/2000/svg" xmlns:xlink="http://www.w3.org/1999/xlink" version="1.1" x="0" y="0" viewBox="17.78954148507683 17.792999999999996 54.422311389563404 54.408" enable-background="new 0 0 90 90" xml:space="preserve" height="122.2183321445603" width="122.25048025077832" class="icon-icon-0" data-fill-palette-color="accent" id="icon-0"><path fill="#ffffff" d="M72.135 43.08c-0.154-0.576-0.523-1.058-1.041-1.356-0.34-0.195-0.725-0.299-1.113-0.299-0.498 0-0.975 0.167-1.357 0.46l-3.855-2.226 2.18-3.776c0.096 0.012 0.191 0.019 0.287 0.019 0.795 0 1.537-0.428 1.936-1.117 0.297-0.516 0.377-1.117 0.223-1.693s-0.523-1.058-1.041-1.355c-0.338-0.195-0.725-0.3-1.115-0.3-0.795 0-1.535 0.428-1.934 1.116-0.463 0.803-0.369 1.776 0.16 2.472l-2.18 3.777-6.271-3.621 2.18-3.776c0.094 0.013 0.189 0.019 0.285 0.019 0.797 0 1.537-0.428 1.936-1.117 0.615-1.065 0.248-2.434-0.816-3.049-0.34-0.196-0.727-0.3-1.115-0.3-0.797 0-1.537 0.428-1.936 1.116-0.297 0.517-0.377 1.117-0.223 1.693 0.078 0.287 0.207 0.551 0.383 0.78l-2.18 3.775-6.631-3.828 2.182-3.776c0.094 0.013 0.189 0.019 0.285 0.019 0.797 0 1.537-0.428 1.934-1.116 0.299-0.517 0.379-1.118 0.225-1.694s-0.523-1.058-1.041-1.356c-0.338-0.196-0.723-0.299-1.113-0.299-0.797 0-1.537 0.428-1.936 1.117-0.463 0.803-0.369 1.776 0.16 2.471l-2.18 3.777-6.273-3.622 2.181-3.776c0.095 0.012 0.19 0.019 0.286 0.019 0.796 0 1.537-0.428 1.933-1.116 0.299-0.516 0.379-1.118 0.225-1.694s-0.523-1.058-1.041-1.356c-0.339-0.195-0.724-0.299-1.113-0.299-0.797 0-1.538 0.428-1.935 1.116-0.464 0.802-0.37 1.776 0.16 2.472l-2.181 3.777-3.776-2.18c0.111-0.867-0.294-1.757-1.097-2.22-0.339-0.196-0.725-0.299-1.115-0.299-0.795 0-1.536 0.427-1.934 1.116-0.298 0.516-0.376 1.118-0.222 1.693 0.154 0.576 0.523 1.058 1.039 1.355 0.34 0.195 0.726 0.299 1.116 0.299 0.497 0 0.972-0.167 1.355-0.459l3.776 2.18-3.62 6.271-3.777-2.181c0.111-0.867-0.294-1.757-1.097-2.221-0.339-0.195-0.724-0.298-1.113-0.298-0.796 0-1.538 0.427-1.935 1.115-0.298 0.517-0.378 1.119-0.224 1.695s0.524 1.057 1.041 1.354c0.339 0.196 0.725 0.299 1.115 0.299 0.497 0 0.972-0.166 1.355-0.459l3.776 2.18-3.828 6.63-3.777-2.181c0.111-0.867-0.294-1.757-1.096-2.221-0.339-0.196-0.725-0.299-1.114-0.299-0.796 0-1.537 0.428-1.936 1.117-0.298 0.516-0.377 1.117-0.223 1.693 0.154 0.577 0.524 1.059 1.04 1.355 0.339 0.195 0.725 0.3 1.115 0.3 0.497 0 0.972-0.167 1.356-0.46l3.777 2.181-3.621 6.271-3.777-2.181c0.111-0.866-0.294-1.756-1.097-2.22-0.339-0.196-0.724-0.3-1.115-0.3-0.795 0-1.537 0.428-1.934 1.117-0.615 1.065-0.249 2.433 0.817 3.049 0.339 0.195 0.724 0.299 1.115 0.299 0.497 0 0.973-0.166 1.356-0.46l3.777 2.181-2.219 3.844c-0.095-0.012-0.19-0.019-0.286-0.019-0.795 0-1.536 0.427-1.935 1.116-0.614 1.065-0.248 2.434 0.817 3.049 0.339 0.195 0.725 0.299 1.116 0.299 0.795 0 1.537-0.428 1.934-1.116 0.298-0.517 0.378-1.118 0.223-1.694-0.077-0.287-0.207-0.55-0.382-0.777l2.218-3.844 6.272 3.621-2.219 3.844c-0.095-0.012-0.191-0.019-0.287-0.019-0.796 0-1.537 0.428-1.934 1.116-0.615 1.065-0.249 2.434 0.817 3.049 0.339 0.195 0.724 0.3 1.115 0.3 0.796 0 1.537-0.429 1.935-1.117 0.298-0.516 0.377-1.117 0.223-1.692-0.077-0.287-0.207-0.551-0.383-0.779l2.219-3.843 6.629 3.828-2.219 3.843c-0.095-0.013-0.19-0.02-0.286-0.02-0.796 0-1.537 0.429-1.934 1.116-0.299 0.517-0.379 1.118-0.225 1.694s0.524 1.057 1.04 1.355c0.339 0.195 0.725 0.3 1.115 0.3 0.796 0 1.537-0.428 1.936-1.117 0.462-0.803 0.368-1.776-0.161-2.47l2.219-3.845 6.273 3.62-2.219 3.844c-0.096-0.012-0.191-0.019-0.287-0.019-0.795 0-1.537 0.428-1.935 1.116-0.615 1.066-0.248 2.434 0.818 3.05 0.338 0.195 0.724 0.299 1.113 0.299 0.797 0 1.539-0.429 1.936-1.116 0.297-0.517 0.377-1.119 0.223-1.695-0.076-0.286-0.207-0.549-0.383-0.778l2.219-3.842 3.854 2.225c-0.037 0.286-0.02 0.579 0.059 0.865 0.154 0.576 0.523 1.058 1.039 1.356 0.34 0.195 0.725 0.299 1.115 0.299 0.795 0 1.537-0.428 1.936-1.117 0.613-1.065 0.248-2.433-0.818-3.049-0.338-0.195-0.725-0.299-1.113-0.299-0.498 0-0.975 0.167-1.357 0.46l-3.855-2.226 3.621-6.272 3.855 2.226c-0.111 0.867 0.293 1.757 1.096 2.221 0.34 0.195 0.725 0.299 1.115 0.299 0.797 0 1.537-0.428 1.934-1.115 0.299-0.517 0.379-1.118 0.225-1.694s-0.523-1.058-1.041-1.356c-0.34-0.195-0.725-0.299-1.113-0.299-0.498 0-0.975 0.168-1.357 0.46l-3.855-2.226 3.828-6.63 3.854 2.225c-0.037 0.286-0.018 0.579 0.059 0.866 0.154 0.576 0.523 1.058 1.039 1.355 0.34 0.195 0.725 0.299 1.115 0.299 0.797 0 1.537-0.428 1.934-1.115 0.299-0.517 0.379-1.118 0.225-1.694s-0.523-1.058-1.041-1.356c-0.338-0.195-0.725-0.299-1.113-0.299-0.498 0-0.973 0.167-1.357 0.46l-3.855-2.226 3.621-6.271 3.855 2.226c-0.111 0.866 0.295 1.756 1.098 2.221 0.338 0.195 0.723 0.299 1.113 0.299 0.795 0 1.537-0.428 1.934-1.116C72.209 44.258 72.289 43.656 72.135 43.08zM66.787 33.411c0.092-0.16 0.266-0.259 0.449-0.259 0.092 0 0.178 0.023 0.26 0.07 0.119 0.068 0.203 0.18 0.24 0.313 0.035 0.134 0.016 0.273-0.053 0.393-0.139 0.24-0.465 0.33-0.707 0.189C66.73 33.975 66.645 33.658 66.787 33.411zM59.031 28.933c0.092-0.16 0.264-0.26 0.449-0.26 0.09 0 0.176 0.023 0.256 0.07 0.248 0.143 0.332 0.459 0.189 0.707-0.137 0.238-0.463 0.331-0.705 0.189-0.121-0.069-0.207-0.181-0.242-0.314C58.943 29.191 58.961 29.052 59.031 28.933zM50.916 24.247c0.092-0.16 0.264-0.26 0.449-0.26 0.09 0 0.176 0.023 0.256 0.07 0.121 0.069 0.207 0.181 0.242 0.314s0.018 0.272-0.053 0.392c-0.137 0.237-0.463 0.331-0.705 0.189C50.857 24.811 50.773 24.493 50.916 24.247zM43.159 19.768c0.092-0.16 0.264-0.259 0.449-0.259 0.09 0 0.177 0.023 0.256 0.069 0.12 0.069 0.206 0.181 0.242 0.314 0.035 0.133 0.017 0.272-0.053 0.393-0.138 0.238-0.465 0.33-0.706 0.189C43.1 20.332 43.016 20.015 43.159 19.768zM33.404 23.138c-0.119-0.068-0.204-0.18-0.24-0.312-0.036-0.134-0.018-0.274 0.051-0.393 0.094-0.162 0.262-0.259 0.449-0.259 0.091 0 0.177 0.023 0.258 0.07 0.247 0.143 0.332 0.459 0.189 0.707C33.974 23.188 33.649 23.279 33.404 23.138zM28.925 30.895c-0.119-0.068-0.205-0.18-0.24-0.312-0.036-0.134-0.018-0.273 0.052-0.393 0.092-0.16 0.265-0.258 0.45-0.258 0.09 0 0.177 0.022 0.256 0.068 0.247 0.143 0.332 0.461 0.19 0.707C29.494 30.947 29.172 31.038 28.925 30.895zM24.24 39.01c-0.12-0.068-0.205-0.18-0.241-0.313-0.036-0.133-0.018-0.273 0.052-0.393 0.092-0.159 0.265-0.259 0.45-0.259 0.09 0 0.177 0.023 0.256 0.069 0.247 0.143 0.332 0.46 0.19 0.707C24.81 39.06 24.486 39.153 24.24 39.01zM19.762 46.769c-0.247-0.143-0.332-0.46-0.189-0.706 0.092-0.16 0.264-0.26 0.449-0.26 0.091 0 0.177 0.023 0.257 0.07 0.247 0.143 0.332 0.459 0.189 0.706C20.331 46.817 20.004 46.909 19.762 46.769zM23.093 56.589c-0.139 0.241-0.461 0.331-0.706 0.189-0.247-0.143-0.332-0.46-0.19-0.706 0.093-0.159 0.265-0.259 0.45-0.259 0.09 0 0.177 0.023 0.258 0.07 0.119 0.069 0.205 0.18 0.24 0.312C23.181 56.33 23.163 56.469 23.093 56.589zM30.851 61.067c-0.138 0.238-0.464 0.33-0.706 0.189-0.247-0.143-0.332-0.459-0.189-0.706 0.092-0.16 0.264-0.259 0.448-0.259 0.091 0 0.177 0.023 0.258 0.07 0.12 0.069 0.205 0.181 0.241 0.313C30.938 60.809 30.92 60.948 30.851 61.067zM38.967 65.753c-0.137 0.238-0.463 0.331-0.707 0.189-0.12-0.068-0.206-0.181-0.241-0.314-0.036-0.133-0.018-0.271 0.052-0.392 0.092-0.16 0.264-0.26 0.449-0.26 0.091 0 0.177 0.023 0.257 0.07C39.024 65.189 39.109 65.507 38.967 65.753zM46.723 70.232c-0.137 0.237-0.465 0.329-0.705 0.189-0.248-0.143-0.332-0.46-0.189-0.706 0.092-0.16 0.264-0.26 0.449-0.26 0.09 0 0.178 0.023 0.258 0.07 0.119 0.068 0.205 0.18 0.24 0.312C46.811 69.973 46.793 70.111 46.723 70.232zM56.594 66.84c0.246 0.143 0.332 0.459 0.189 0.705-0.137 0.238-0.463 0.331-0.707 0.19-0.119-0.069-0.205-0.181-0.24-0.314s-0.018-0.272 0.053-0.393c0.092-0.159 0.264-0.259 0.449-0.259C56.428 66.77 56.514 66.793 56.594 66.84zM61.072 59.082c0.119 0.068 0.205 0.18 0.242 0.314 0.035 0.133 0.018 0.271-0.053 0.392-0.137 0.238-0.465 0.329-0.705 0.189-0.248-0.143-0.332-0.46-0.189-0.706 0.092-0.162 0.26-0.26 0.449-0.26C60.906 59.012 60.994 59.035 61.072 59.082zM65.758 50.966c0.119 0.069 0.205 0.181 0.242 0.314 0.035 0.134 0.016 0.272-0.053 0.394-0.137 0.237-0.463 0.33-0.707 0.188-0.119-0.068-0.205-0.18-0.24-0.312-0.035-0.135-0.018-0.274 0.051-0.393 0.094-0.16 0.266-0.26 0.451-0.26C65.592 50.896 65.68 50.92 65.758 50.966zM54.668 35.809l-3.621 6.271-6.63-3.828 3.621-6.271L54.668 35.809zM50.189 43.565l-3.828 6.63-6.63-3.828 3.828-6.63L50.189 43.565zM40.28 27.501l6.273 3.622-3.621 6.271-6.273-3.622L40.28 27.501zM35.801 35.258l6.273 3.622-3.828 6.63-6.272-3.621L35.801 35.258zM27.495 49.646l3.621-6.271 6.272 3.621-3.621 6.272L27.495 49.646zM35.253 54.125l3.621-6.272 6.63 3.828-3.621 6.272L35.253 54.125zM49.641 62.432l-6.273-3.621 3.623-6.272 6.271 3.621L49.641 62.432zM54.119 54.674l-6.271-3.621 3.826-6.63 6.273 3.621L54.119 54.674zM58.805 46.559l-6.273-3.621 3.623-6.271 6.271 3.621L58.805 46.559zM70.426 43.915c-0.139 0.241-0.463 0.331-0.705 0.19-0.248-0.143-0.332-0.46-0.189-0.707 0.092-0.159 0.264-0.259 0.449-0.259 0.09 0 0.176 0.023 0.256 0.069 0.119 0.069 0.205 0.182 0.242 0.314C70.514 43.657 70.494 43.796 70.426 43.915z" data-fill-palette-color="accent"></path></svg></g></svg></g></svg></g><defs></defs></svg><rect width="395.52" height="86.70875556368644" fill="none" stroke="none" visibility="hidden"></rect></g></svg></g></svg>